<svg width="1200" height="900" viewBox="0 0 1200 900" fill="none" xmlns="http://www.w3.org/2000/svg">
  <rect width="1200" height="900" rx="42" fill="url(#bg)"/>
  <rect x="86" y="86" width="1028" height="728" rx="30" fill="white" fill-opacity="0.08" stroke="white" stroke-opacity="0.22"/>
  <g opacity="0.85">
    <rect x="159" y="156" width="268" height="214" rx="28" fill="white" fill-opacity="0.92"/>
    <rect x="465" y="156" width="268" height="214" rx="28" fill="#EAF4FF"/>
    <rect x="771" y="156" width="268" height="214" rx="28" fill="white" fill-opacity="0.92"/>
    <rect x="159" y="418" width="421" height="230" rx="28" fill="#DCEEFF"/>
    <rect x="618" y="418" width="421" height="230" rx="28" fill="white" fill-opacity="0.92"/>
  </g>
  <circle cx="293" cy="260" r="58" fill="#0C3F9A"/>
  <path d="M266 260L284 278L322 240" stroke="white" stroke-width="11" stroke-linecap="round" stroke-linejoin="round"/>
  <circle cx="599" cy="258" r="58" fill="#1564EA"/>
  <path d="M579 258H619M599 238V278" stroke="white" stroke-width="10" stroke-linecap="round"/>
  <circle cx="902" cy="258" r="58" fill="#0C3F9A"/>
  <path d="M886 241L919 258L886 276V241Z" fill="white"/>
  <path d="M240 494C305 448 369 424 442 424C497 424 532 434 580 458" stroke="#1564EA" stroke-width="10" stroke-linecap="round"/>
  <circle cx="242" cy="494" r="22" fill="#1564EA"/>
  <circle cx="580" cy="458" r="22" fill="#0C3F9A"/>
  <rect x="682" y="476" width="288" height="112" rx="22" fill="#EAF4FF"/>
  <rect x="711" y="510" width="117" height="15" rx="7.5" fill="#125EE6"/>
  <rect x="711" y="540" width="211" height="14" rx="7" fill="#86B2F1"/>
  <rect x="711" y="568" width="180" height="14" rx="7" fill="#D4E5FB"/>
  <defs>
    <linearGradient id="bg" x1="80" y1="68" x2="1115" y2="838" gradientUnits="userSpaceOnUse">
      <stop stop-color="#1258DA"/>
      <stop offset="1" stop-color="#071D52"/>
    </linearGradient>
  </defs>
</svg>
